<svg xmlns="http://www.w3.org/2000/svg" width="69.234" height="43.351" viewBox="0 0 69.234 43.351">
  <g id="Raggruppa_4240" data-name="Raggruppa 4240" transform="translate(-1109.39 -444.546)">
    <g id="Raggruppa_4234" data-name="Raggruppa 4234" transform="translate(0 -7)">
      <path id="Icon_awesome-wallet" data-name="Icon awesome-wallet" d="M32.428,9H5.625a1.125,1.125,0,0,1,0-2.25h27A1.125,1.125,0,0,0,33.75,5.625,3.375,3.375,0,0,0,30.375,2.25H4.5A4.5,4.5,0,0,0,0,6.75v22.5a4.5,4.5,0,0,0,4.5,4.5H32.428A3.481,3.481,0,0,0,36,30.375v-18A3.481,3.481,0,0,0,32.428,9ZM29.25,23.625a2.25,2.25,0,1,1,2.25-2.25A2.25,2.25,0,0,1,29.25,23.625Z" transform="translate(1123 461.146)" fill="aqua"/>
      <path id="Icon_weather-stars" data-name="Icon weather-stars" d="M9.24,10.776a5.515,5.515,0,0,0,3.852-1.764,5.493,5.493,0,0,0,1.584-3.936A5.493,5.493,0,0,0,16.26,9.012a5.569,5.569,0,0,0,3.864,1.764,5.562,5.562,0,0,0-2.748.852A5.767,5.767,0,0,0,15.4,13.7a5.643,5.643,0,0,0-.72,2.8,5.521,5.521,0,0,0-1.584-3.948A5.479,5.479,0,0,0,9.24,10.776ZM13.224,23.7a4.286,4.286,0,0,0,4.092-4.284A4.287,4.287,0,0,0,21.4,23.7a4.287,4.287,0,0,0-4.08,4.284,4.133,4.133,0,0,0-1.188-2.964A4.2,4.2,0,0,0,13.224,23.7ZM21.4,18.012a4.266,4.266,0,0,0,4.068-4.3A4.286,4.286,0,0,0,29.556,18a4.286,4.286,0,0,0-4.092,4.284A4.244,4.244,0,0,0,21.4,18.012Z" transform="translate(1149.067 446.47)" fill="aqua"/>
    </g>
    <path id="Icon_awesome-check-circle" data-name="Icon awesome-check-circle" d="M19.7,10.13A9.567,9.567,0,1,1,10.13.563,9.567,9.567,0,0,1,19.7,10.13ZM9.023,15.2l7.1-7.1a.617.617,0,0,0,0-.873l-.873-.873a.617.617,0,0,0-.873,0L8.587,12.141l-2.7-2.7a.617.617,0,0,0-.873,0l-.873.873a.617.617,0,0,0,0,.873L8.15,15.2a.617.617,0,0,0,.873,0Z" transform="translate(1108.827 450.091)" fill="#fff"/>
  </g>
</svg>
