<?xml version="1.0" encoding="utf-8"?>
<!-- Generator: Adobe Illustrator 26.2.0, SVG Export Plug-In . SVG Version: 6.00 Build 0)  -->
<svg version="1.1" id="Layer_1" xmlns="http://www.w3.org/2000/svg" xmlns:xlink="http://www.w3.org/1999/xlink" x="0px" y="0px"
	 viewBox="0 0 734.3 407" style="enable-background:new 0 0 734.3 407;" xml:space="preserve">
<style type="text/css">
	.st0{fill:#E17726;stroke:#E17726;stroke-linecap:round;stroke-linejoin:round;}
	.st1{fill:#E27625;stroke:#E27625;stroke-linecap:round;stroke-linejoin:round;}
	.st2{fill:#D5BFB2;stroke:#D5BFB2;stroke-linecap:round;stroke-linejoin:round;}
	.st3{fill:#233447;stroke:#233447;stroke-linecap:round;stroke-linejoin:round;}
	.st4{fill:#CC6228;stroke:#CC6228;stroke-linecap:round;stroke-linejoin:round;}
	.st5{fill:#E27525;stroke:#E27525;stroke-linecap:round;stroke-linejoin:round;}
	.st6{fill:#F5841F;stroke:#F5841F;stroke-linecap:round;stroke-linejoin:round;}
	.st7{fill:#C0AC9D;stroke:#C0AC9D;stroke-linecap:round;stroke-linejoin:round;}
	.st8{fill:#161616;stroke:#161616;stroke-linecap:round;stroke-linejoin:round;}
	.st9{fill:#763E1A;stroke:#763E1A;stroke-linecap:round;stroke-linejoin:round;}
	.st10{stroke:#000000;stroke-miterlimit:10;}
	.st11{fill:#3375BB;}
	.st12{fill-rule:evenodd;clip-rule:evenodd;fill:#FFFFFF;}
</style>
<polygon class="st0" points="262.4,109.7 177.6,172.7 193.3,135.5 "/>
<polygon class="st1" points="66.7,109.7 150.8,173.2 135.8,135.5 "/>
<polygon class="st1" points="231.9,255.6 209.4,290.2 257.7,303.5 271.5,256.4 "/>
<polygon class="st1" points="57.8,256.4 71.5,303.5 119.8,290.2 97.3,255.6 "/>
<polygon class="st1" points="117.2,197.2 103.7,217.6 151.6,219.7 150,168.1 "/>
<polygon class="st1" points="212,197.2 178.7,167.5 177.6,219.7 225.5,217.6 "/>
<polygon class="st1" points="119.8,290.2 148.7,276.2 123.8,256.7 "/>
<polygon class="st1" points="180.5,276.2 209.4,290.2 205.4,256.7 "/>
<polygon class="st2" points="209.4,290.2 180.5,276.2 182.8,295 182.5,302.9 "/>
<polygon class="st2" points="119.8,290.2 146.7,302.9 146.5,295 148.7,276.2 "/>
<polygon class="st3" points="147.2,244.3 123.1,237.2 140.1,229.5 "/>
<polygon class="st3" points="182,244.3 189.1,229.5 206.1,237.2 "/>
<polygon class="st4" points="119.8,290.2 124,255.6 97.3,256.4 "/>
<polygon class="st4" points="205.2,255.6 209.4,290.2 231.9,256.4 "/>
<polygon class="st4" points="225.5,217.6 177.6,219.7 182,244.3 189.1,229.5 206.1,237.2 "/>
<polygon class="st4" points="123.1,237.2 140.1,229.5 147.2,244.3 151.6,219.7 103.7,217.6 "/>
<polygon class="st5" points="103.7,217.6 123.8,256.7 123.1,237.2 "/>
<polygon class="st5" points="206.1,237.2 205.4,256.7 225.5,217.6 "/>
<polygon class="st5" points="151.6,219.7 147.2,244.3 152.8,273.4 154,235.1 "/>
<polygon class="st5" points="177.6,219.7 175.3,235 176.4,273.4 182,244.3 "/>
<polygon class="st6" points="182,244.3 176.4,273.4 180.5,276.2 205.4,256.7 206.1,237.2 "/>
<polygon class="st6" points="123.1,237.2 123.8,256.7 148.7,276.2 152.8,273.4 147.2,244.3 "/>
<polygon class="st7" points="182.5,302.9 182.8,295 180.6,293.1 148.5,293.1 146.5,295 146.7,302.9 119.8,290.2 129.2,297.9 
	148.3,311.1 180.9,311.1 200,297.9 209.4,290.2 "/>
<polygon class="st8" points="180.5,276.2 176.4,273.4 152.8,273.4 148.7,276.2 146.5,295 148.5,293.1 180.6,293.1 182.8,295 "/>
<polygon class="st9" points="266,176.7 273.2,142 262.4,109.7 180.5,170.5 212,197.2 256.6,210.2 266.4,198.7 262.1,195.7 
	268.9,189.4 263.7,185.3 270.5,180.2 "/>
<polygon class="st9" points="56,142 63.2,176.7 58.6,180.2 65.5,185.3 60.3,189.4 67.1,195.7 62.8,198.7 72.6,210.2 117.2,197.2 
	148.7,170.5 66.7,109.7 "/>
<polygon class="st6" points="256.6,210.2 212,197.2 225.5,217.6 205.4,256.7 231.9,256.4 271.5,256.4 "/>
<polygon class="st6" points="117.2,197.2 72.6,210.2 57.8,256.4 97.3,256.4 123.8,256.7 103.7,217.6 "/>
<polygon class="st6" points="177.6,219.7 180.5,170.5 193.3,135.5 135.8,135.5 148.7,170.5 151.6,219.7 152.7,235.2 152.8,273.4 
	176.4,273.4 176.5,235.2 "/>
<g>
	<rect x="357.1" y="199.6" class="st10" width="45" height="9.4"/>
	
		<rect x="357.1" y="199.6" transform="matrix(6.123234e-17 -1 1 6.123234e-17 175.3102 583.9055)" class="st10" width="45" height="9.4"/>
</g>
<circle class="st11" cx="594.6" cy="212.6" r="100"/>
<path class="st12" d="M643.7,163c3.6,0,6.5,2.9,6.5,6.5c0,0,0,0,0,0.1c-0.3,18.6-1,32.9-2.4,44.2c-1.3,11.3-3.3,19.7-6.3,26.4
	c-2,4.5-4.5,8.3-7.4,11.5c-3.9,4.2-8.4,7.3-13.3,10.2c-2.1,1.2-4.3,2.5-6.5,3.8c-4.9,2.8-10.2,5.8-16.2,9.8c-2.2,1.5-5,1.5-7.2,0
	c-6.1-4.1-11.5-7.2-16.4-9.9c-1.1-0.6-2.2-1.2-3.2-1.8c-5.7-3.3-10.9-6.5-15.4-11c-3-3-5.6-6.7-7.7-11c-2.8-5.8-4.7-12.8-6.1-21.9
	c-1.9-12.2-2.8-28.1-3.2-50.1c0-1.7,0.6-3.4,1.8-4.7c1.2-1.2,2.9-1.9,4.7-1.9h2.7c8.3,0,26.6-0.8,42.4-13.1c2.3-1.8,5.6-1.8,8,0
	c15.8,12.3,34.1,13.1,42.4,13.1 M629.1,236.1c2-4.2,3.7-10,5-18.3c1.5-9.9,2.5-23.4,2.9-41.8c-9.8-0.3-26.5-2.2-42.5-12.9
	c-16,10.7-32.7,12.6-42.4,12.9c0.3,15.2,1,27,2.1,36.3c1.3,10.6,3,17.7,5.3,22.8c1.5,3.3,3.1,5.8,5,7.9c2.6,2.8,5.9,5.2,10.3,7.9
	c1.9,1.1,3.9,2.3,6.1,3.5c4,2.2,8.5,4.8,13.6,8c5-3.2,9.4-5.7,13.4-7.9c1.2-0.7,2.3-1.3,3.4-1.9c5.5-3.2,9.6-5.8,12.6-8.8
	C625.9,241.5,627.6,239.2,629.1,236.1"/>
</svg>
