<svg id="Livello_1" data-name="Livello 1" xmlns="http://www.w3.org/2000/svg" width="36.379" height="35.073" viewBox="0 0 36.379 35.073"><defs><style>.cls-1{fill:#fff;}.cls-2{fill:#2ef000;}.cls-3{fill:#0b0629;}</style></defs><g id="Raggruppa_4117" data-name="Raggruppa 4117"><g id="Raggruppa_4085" data-name="Raggruppa 4085"><path id="Icon_awesome-bell" data-name="Icon awesome-bell" class="cls-1" d="M13.189,35.073a3.7681,3.7681,0,0,0,3.767-3.768H9.423A3.768,3.768,0,0,0,13.189,35.073Zm12.682-8.815c-1.138-1.222-3.266-3.061-3.266-9.085a9.3,9.3,0,0,0-7.533-9.136V6.811A1.883,1.883,0,0,0,11.306,6.81V8.038a9.3,9.3,0,0,0-7.533,9.136c0,6.023-2.129,7.862-3.266,9.085A1.84,1.84,0,0,0,0,27.537a1.886,1.886,0,0,0,1.888,1.884H24.49a1.885,1.885,0,0,0,1.89-1.88v-.004a1.8388,1.8388,0,0,0-.509-1.278Z"/><g id="Raggruppa_4075" data-name="Raggruppa 4075"><g id="Raggruppa_4032" data-name="Raggruppa 4032"><circle id="Ellisse_28" data-name="Ellisse 28" class="cls-2" cx="26.379" cy="10" r="10"/><path id="Linea_50" data-name="Linea 50" class="cls-3" d="M25.3692,14.6918a1,1,0,0,1-.6525-.4l-2.6076-3.5891a1,1,0,0,1,1.6178-1.1754l2.6076,3.5891a1,1,0,0,1-.9653,1.5754Z"/><path id="Linea_51" data-name="Linea 51" class="cls-3" d="M25.3706,14.6913a1,1,0,0,1-.6829-1.5314l0,0L29.4916,5.753a1,1,0,0,1,1.383-.2954l0,0a1,1,0,0,1,.2954,1.383l0,0-4.8039,7.4067A1,1,0,0,1,25.3706,14.6913Z"/></g></g></g></g></svg>