<svg id="Livello_1" data-name="Livello 1" xmlns="http://www.w3.org/2000/svg" width="36.344" height="35.144" viewBox="0 0 36.344 35.144"><defs><style>.cls-1{fill:#fff;}.cls-2{fill:#f00000;}.cls-3{fill:#0b0629;}</style></defs><g id="Raggruppa_4119" data-name="Raggruppa 4119"><g id="Raggruppa_4118" data-name="Raggruppa 4118"><g id="Raggruppa_4088" data-name="Raggruppa 4088"><path id="Icon_awesome-bell" data-name="Icon awesome-bell" class="cls-1" d="M13.189,35.143a3.768,3.768,0,0,0,3.767-3.768H9.423A3.768,3.768,0,0,0,13.189,35.143Zm12.682-8.815c-1.138-1.222-3.266-3.061-3.266-9.085a9.3,9.3,0,0,0-7.533-9.136V6.881A1.883,1.883,0,0,0,11.306,6.88V8.108a9.3,9.3,0,0,0-7.533,9.136c0,6.023-2.129,7.862-3.266,9.085A1.84,1.84,0,0,0,0,27.607a1.886,1.886,0,0,0,1.888,1.884H24.49a1.885,1.885,0,0,0,1.89-1.88v-.004a1.8388,1.8388,0,0,0-.509-1.278Z"/><g id="Raggruppa_4080" data-name="Raggruppa 4080"><g id="Raggruppa_4069" data-name="Raggruppa 4069"><path id="Icon_ionic-ios-close-circle" data-name="Icon ionic-ios-close-circle" class="cls-2" d="M26.2739,0a10.069,10.069,0,1,0,.002,0Z"/></g><g id="Raggruppa_4070" data-name="Raggruppa 4070"><path id="Icon_ionic-ios-close-circle-2" data-name="Icon ionic-ios-close-circle-2" class="cls-3" d="M29.1349,14.153l-2.858-2.858-2.858,2.858a.867.867,0,1,1-1.2433-1.2086l.0173-.0174,2.858-2.858-2.858-2.858a.867.867,0,0,1,1.226-1.226l2.858,2.858,2.858-2.858a.867.867,0,0,1,1.226,1.226l-2.859,2.858,2.858,2.858a.8708.8708,0,0,1,0,1.226.861.861,0,0,1-1.2176.0074Z"/></g></g></g></g></g></svg>