<svg id="Livello_1" data-name="Livello 1" xmlns="http://www.w3.org/2000/svg" width="36.344" height="35.003" viewBox="0 0 36.344 35.003"><defs><style>.cls-1{fill:#fff;}.cls-2{fill:#c923dd;}.cls-3{fill:#0b0629;}</style></defs><g id="Raggruppa_4116" data-name="Raggruppa 4116"><path id="Icon_awesome-bell" data-name="Icon awesome-bell" class="cls-1" d="M13.189,35.003a3.7681,3.7681,0,0,0,3.767-3.768H9.423A3.768,3.768,0,0,0,13.189,35.003Zm12.682-8.815c-1.138-1.222-3.266-3.061-3.266-9.085a9.3,9.3,0,0,0-7.533-9.136V6.741A1.883,1.883,0,0,0,11.306,6.74V7.968a9.3,9.3,0,0,0-7.533,9.136c0,6.023-2.129,7.862-3.266,9.085A1.84,1.84,0,0,0,0,27.467a1.886,1.886,0,0,0,1.888,1.884H24.49a1.885,1.885,0,0,0,1.89-1.88v-.004a1.8388,1.8388,0,0,0-.509-1.278Z"/><circle id="Ellisse_32" data-name="Ellisse 32" class="cls-2" cx="26.344" cy="10" r="10"/><g id="Raggruppa_4089" data-name="Raggruppa 4089"><path id="Linea_52" data-name="Linea 52" class="cls-3" d="M31.063,8.391H21.625a.75.75,0,0,1,0-1.5h9.438a.75.75,0,0,1,0,1.5Z"/><path id="Linea_53" data-name="Linea 53" class="cls-3" d="M31.062,8.391a.7481.7481,0,0,1-.53-.22L28.173,5.812a.75.75,0,0,1,1.06-1.06l2.36,2.359a.75.75,0,0,1-.53,1.28Z"/><path id="Linea_54" data-name="Linea 54" class="cls-3" d="M28.703,10.75a.7505.7505,0,0,1-.53-1.2807l0,0,2.359-2.358a.75.75,0,0,1,1.0607,0l0,0a.75.75,0,0,1,0,1.06l-2.36,2.36A.7482.7482,0,0,1,28.703,10.75Z"/><path id="Linea_52-2" data-name="Linea 52-2" class="cls-3" d="M21.625,12h9.438a.75.75,0,1,1,0,1.5H21.625a.75.75,0,0,1,0-1.5Z"/><path id="Linea_53-2" data-name="Linea 53-2" class="cls-3" d="M21.625,12.001a.7477.7477,0,0,1,.53.22l2.359,2.359a.75.75,0,1,1-1.06,1.06l-2.36-2.359a.75.75,0,0,1,.53-1.28Z"/><path id="Linea_54-2" data-name="Linea 54-2" class="cls-3" d="M23.984,9.641a.7505.7505,0,0,1,.53,1.2807l0,0L22.155,13.28a.75.75,0,0,1-1.0607,0l0,0a.75.75,0,0,1,0-1.06l2.36-2.36A.7482.7482,0,0,1,23.984,9.641Z"/></g></g></svg>